<?xml version="1.0" encoding="UTF-8" standalone="no"?>
<!-- Created with Inkscape (http://www.inkscape.org/) -->

<svg
   xmlns:dc="http://purl.org/dc/elements/1.1/"
   xmlns:cc="http://creativecommons.org/ns#"
   xmlns:rdf="http://www.w3.org/1999/02/22-rdf-syntax-ns#"
   xmlns:svg="http://www.w3.org/2000/svg"
   xmlns="http://www.w3.org/2000/svg"
   xmlns:sodipodi="http://sodipodi.sourceforge.net/DTD/sodipodi-0.dtd"
   xmlns:inkscape="http://www.inkscape.org/namespaces/inkscape"
   width="647.43542mm"
   height="899.58331mm"
   viewBox="0 0 647.43542 899.58331"
   version="1.1"
   id="svg1081"
   inkscape:version="0.92.2 5c3e80d, 2017-08-06"
   sodipodi:docname="logo.svg">
  <defs
     id="defs1075" />
  <sodipodi:namedview
     id="base"
     pagecolor="#ffffff"
     bordercolor="#666666"
     borderopacity="1.0"
     inkscape:pageopacity="0.0"
     inkscape:pageshadow="2"
     inkscape:zoom="0.1767767"
     inkscape:cx="1517.2912"
     inkscape:cy="1394.6734"
     inkscape:document-units="mm"
     inkscape:current-layer="layer1"
     showgrid="false"
     fit-margin-top="0"
     fit-margin-left="0"
     fit-margin-right="0"
     fit-margin-bottom="0"
     inkscape:window-width="1360"
     inkscape:window-height="739"
     inkscape:window-x="1366"
     inkscape:window-y="0"
     inkscape:window-maximized="1"
     showguides="false"
     inkscape:snap-global="false">
    <inkscape:grid
       type="xygrid"
       id="grid866" />
  </sodipodi:namedview>
  <metadata
     id="metadata1078">
    <rdf:RDF>
      <cc:Work
         rdf:about="">
        <dc:format>image/svg+xml</dc:format>
        <dc:type
           rdf:resource="http://purl.org/dc/dcmitype/StillImage" />
        <dc:title></dc:title>
      </cc:Work>
    </rdf:RDF>
  </metadata>
  <g
     inkscape:label="Layer 1"
     inkscape:groupmode="layer"
     id="layer1"
     transform="translate(398.55699,328.92853)">
    <rect
       style="opacity:1;fill:#f4994b;fill-opacity:1;stroke:none;stroke-width:1;stroke-miterlimit:4;stroke-dasharray:none;stroke-opacity:1"
       id="rect876"
       width="647.43542"
       height="899.58331"
       x="-398.55698"
       y="-328.92853"
       inkscape:export-filename="/home/main/logo.png"
       inkscape:export-xdpi="7.8463426"
       inkscape:export-ydpi="7.8463426" />
    <g
       id="g968"
       transform="translate(3112.8653,1911.7616)">
      <g
         id="g859">
        <path
           sodipodi:nodetypes="ccccc"
           inkscape:connector-curvature="0"
           id="path831"
           d="m -3438.3044,-2064.6062 250.4446,-141.1679 -184.7541,305.3151 -65.5352,117.9262 z"
           inkscape:transform-center-y="-4.9875364"
           inkscape:transform-center-x="-0.18951271"
           style="opacity:1;fill:#f3c095;fill-opacity:1;stroke:none;stroke-width:2.16672206;stroke-miterlimit:4;stroke-dasharray:none;stroke-opacity:1" />
        <path
           style="opacity:1;fill:#fffefc;fill-opacity:1;stroke:none;stroke-width:0.37419471;stroke-miterlimit:4;stroke-dasharray:none;stroke-opacity:1"
           inkscape:transform-center-x="4.9285861e-06"
           inkscape:transform-center-y="-1.5720965e-06"
           d="M 124.57391,103.49957 83.576987,78.286833 95.045693,58.482139 127.24673,7.2780868 168.24365,32.490824 166.90724,80.601565 Z"
           id="path826"
           inkscape:connector-curvature="0"
           sodipodi:nodetypes="ccccccc"
           transform="matrix(6.0080294,-0.16587976,0.1701166,5.8583965,-3953.6,-2227.3044)" />
        <path
           inkscape:transform-center-x="-0.28914027"
           sodipodi:nodetypes="cccc"
           inkscape:connector-curvature="0"
           id="path918"
           d="m -3372.6139,-1900.459 184.7541,-305.3151 170.6768,203.7692 z"
           inkscape:transform-center-y="-4.7768305"
           style="opacity:1;fill:#fbe9db;fill-opacity:1;stroke:none;stroke-width:2.16672206;stroke-miterlimit:4;stroke-dasharray:none;stroke-opacity:1" />
        <path
           style="opacity:1;fill:#f9dec9;fill-opacity:1;stroke:none;stroke-width:2.16672206;stroke-miterlimit:4;stroke-dasharray:none;stroke-opacity:1"
           inkscape:transform-center-x="-0.18951271"
           inkscape:transform-center-y="-4.9875364"
           d="m -3438.1491,-1782.5328 -0.1553,-282.0734 65.6904,164.1472 z"
           id="path920"
           inkscape:connector-curvature="0"
           sodipodi:nodetypes="cccc" />
        <path
           inkscape:transform-center-x="-0.09691791"
           sodipodi:nodetypes="cccc"
           inkscape:connector-curvature="0"
           id="path922"
           d="m -3438.1491,-1782.5328 65.5352,-117.9262 185.0646,258.8319 z"
           inkscape:transform-center-y="-5.2510976"
           style="opacity:1;fill:#fefbf6;fill-opacity:1;stroke:none;stroke-width:2.16672206;stroke-miterlimit:4;stroke-dasharray:none;stroke-opacity:1" />
        <path
           inkscape:transform-center-x="0.42772516"
           style="opacity:1;fill:#fffefc;fill-opacity:1;stroke:none;stroke-width:2.16672206;stroke-miterlimit:4;stroke-dasharray:none;stroke-opacity:1"
           inkscape:transform-center-y="-5.658469"
           d="m -3099.1714,-1772.0164 -273.4425,-128.4426 355.4309,-101.5459 z"
           id="path924"
           inkscape:connector-curvature="0"
           sodipodi:nodetypes="cccc" />
        <path
           inkscape:transform-center-x="0.41098992"
           style="opacity:1;fill:#fdf3ea;fill-opacity:1;stroke:none;stroke-width:2.16672206;stroke-miterlimit:4;stroke-dasharray:none;stroke-opacity:1"
           inkscape:transform-center-y="-4.9241427"
           d="m -3187.5493,-1641.6271 -185.0646,-258.8319 273.4425,128.4426 z"
           id="path926"
           inkscape:connector-curvature="0"
           sodipodi:nodetypes="cccc" />
        <path
           sodipodi:nodetypes="cccc"
           inkscape:connector-curvature="0"
           id="path928"
           d="m -3099.1714,-1772.0164 81.9884,-229.9885 80.0782,219.21 z"
           inkscape:transform-center-y="-4.9615843"
           inkscape:transform-center-x="-0.31606387"
           style="opacity:1;fill:#fcf0e4;fill-opacity:1;stroke:none;stroke-width:2.16672206;stroke-miterlimit:4;stroke-dasharray:none;stroke-opacity:1" />
        <path
           inkscape:transform-center-x="0.14472627"
           style="opacity:1;fill:#fbe9db;fill-opacity:1;stroke:none;stroke-width:2.16672206;stroke-miterlimit:4;stroke-dasharray:none;stroke-opacity:1"
           inkscape:transform-center-y="-5.1111642"
           d="m -3187.5493,-1641.6271 88.3779,-130.3893 162.0666,-10.7785 z"
           id="path930"
           inkscape:connector-curvature="0"
           sodipodi:nodetypes="cccc" />
        <path
           sodipodi:nodetypes="cccc"
           inkscape:connector-curvature="0"
           id="path932"
           d="m -2937.1048,-1782.7949 -80.0782,-219.21 79.9231,-62.8635 z"
           inkscape:transform-center-y="-5.2607436"
           inkscape:transform-center-x="0.5943753"
           style="opacity:1;fill:#ffffff;fill-opacity:1;stroke:none;stroke-width:2.16672206;stroke-miterlimit:4;stroke-dasharray:none;stroke-opacity:1" />
        <path
           inkscape:transform-center-x="0.27095691"
           style="opacity:1;fill:#fdfcfa;fill-opacity:1;stroke:none;stroke-width:2.16672206;stroke-miterlimit:4;stroke-dasharray:none;stroke-opacity:1"
           inkscape:transform-center-y="-4.9452787"
           d="m -3017.183,-2002.0049 -170.6768,-203.7692 250.5999,140.9057 z"
           id="path934"
           inkscape:connector-curvature="0"
           sodipodi:nodetypes="cccc" />
      </g>
    </g>
    <path
       style="fill:#fffefd;fill-opacity:1;stroke-width:0.26458332"
       d="m -307.76369,516.45542 c -7.5633,-0.76521 -14.39551,-3.33442 -19.8728,-7.473 -9.2506,-6.98971 -15.269,-17.14701 -17.1549,-28.9524 -0.8616,-5.39301 -0.79601,-13.28791 0.1545,-18.60802 0.96819,-5.4194 3.3146,-11.538 6.05019,-15.777 5.29421,-8.2038 14.32621,-15.05338 23.28241,-17.65649 5.3173,-1.54551 6.97679,-1.74641 14.4198,-1.74572 6.3622,0 7.2809,0.058 9.9218,0.6237 6.4377,1.37832 12.0689,3.7619 16.8011,7.11161 3.0383,2.15079 7.2917,6.30391 9.4093,9.1876 2.9146,3.96909 5.6294,10.0484 6.9068,15.46651 1.1898,5.04679 1.2279,5.92011 1.3361,30.63489 l 0.1035,23.61181 -0.6638,0.66371 c -0.649,0.64899 -0.7509,0.66368 -4.5939,0.66368 -2.9748,0 -4.0551,-0.091 -4.4438,-0.37521 -0.4816,-0.35179 -0.5218,-0.83949 -0.6459,-7.83219 l -0.1323,-7.4571 -2.1035,2.6992 c -6.9853,8.9635 -17.15,14.26692 -29.3819,15.3298 -3.8379,0.33351 -5.1103,0.3179 -9.3927,-0.11538 z m 13.9221,-9.5318 c 11.7581,-2.01922 20.1216,-8.94102 24.57,-20.33493 1.4408,-3.69027 2.5254,-10.31848 2.513,-15.357 -0.01,-2.45829 -0.607,-8.39329 -1.047,-10.33888 -1.4743,-6.52042 -4.7266,-12.58731 -8.8908,-16.58501 -5.3663,-5.15189 -11.6635,-7.7579 -20.4396,-8.45889 -13.1259,-1.04851 -23.674,3.01699 -30.4824,11.74848 -3.26421,4.18621 -5.46,9.06722 -6.63571,14.7506 -0.55639,2.68981 -0.62939,3.74862 -0.62939,9.12813 0,5.38099 0.072,6.42228 0.62069,8.99588 1.82961,8.5792 5.3911,14.94761 10.9864,19.6446 4.29731,3.60752 8.9228,5.696 15.11581,6.82511 2.7007,0.49239 11.4104,0.48139 14.319,-0.018 z m 265.610209,9.63207 c -7.679,-0.64928 -14.65392,-3.02138 -20.76982,-7.06368 -2.80958,-1.85711 -3.43969,-2.39372 -6.87919,-5.8596 -6.24081,-6.28869 -9.76789,-13.47851 -11.5565,-23.55731 -0.40709,-2.2938 -0.454,-7.41169 -0.5361,-58.53311 -0.09,-55.93368 -0.089,-56.02049 0.445,-56.55469 0.4921,-0.49209 0.87239,-0.53509 4.72739,-0.53509 3.7255,0 4.24112,0.054 4.63021,0.48379 0.4032,0.44551 0.43871,3.55539 0.44739,39.22451 l 0.01,38.74061 1.36311,-1.5875 c 6.9474,-8.09101 13.81339,-12.22732 23.9926,-14.45401 3.19341,-0.6985 12.10141,-0.98541 16.06891,-0.51749 2.90881,0.34298 8.19928,1.57268 10.41469,2.4207 2.1989,0.84158 6.05329999,2.74349 7.54071,3.72067 11.0156,7.23741 17.40691,18.12372 18.94588,32.2707 0.40661,3.73801 0.16553,12.8556 -0.42608,16.11461 -0.79521,4.38002 -2.45952,9.4661 -4.26062,13.0203 -1.84099,3.6331 -5.72968,8.62561 -8.99379,11.54682 -7.70491001,6.89549 -15.83169,10.29229 -26.669,11.14708 -3.79118,0.29911 -4.6677,0.29631 -8.49439,-0.027 z m 8.46659,-9.76188 c 8.86909,-0.81769 15.19441,-3.58762 20.52628999,-8.9884 C 7.397809,491.0832 10.536799,482.58862 10.525209,471.3837 c -0.01,-9.3757 -1.74181,-16.1753 -5.6288,-22.09768 -4.62690001,-7.04972 -11.0612,-11.31761 -20.031,-13.28651 -3.09811,-0.68011 -11.57729,-0.8179 -15.23179,-0.24751 -11.78341,1.8389 -20.4792,8.77951 -24.60512,19.63869 -1.2065,3.17543 -1.97918,6.71981 -2.41059,11.05832 -0.93271,9.38008 0.88649,18.81251 4.8732,25.26778 3.3201,5.3757 7.41069,9.18761 12.64939,11.78751 3.7052,1.8388 6.97452,2.67711 13.21562,3.38852 1.6922,0.19288 4.08689,0.15848 6.87909,-0.099 z m 100.52941,9.65489 c -12.4139,-1.23209 -23.3558,-7.14169 -30.23071,-16.32728 -5.60361,-7.4871 -8.2492,-16.6724 -8.2524,-28.65221 0,-7.28371 0.65201,-12.01841 2.42501,-17.556 1.39279,-4.3501 4.01629,-9.32781 6.50129,-12.33501 6.65379,-8.0522 15.43341,-12.96509 26.79099,-14.99169 1.3213,-0.23579 4.28292,-0.35412 8.86352,-0.35412 6.1527,0 7.2005,0.065 9.9219,0.6155 11.221191,2.2701 20.029991,7.61902 26.146891,15.87701 4.76541,6.4334 7.29059,13.90251 8.015,23.7068 0.34631,4.68821 0.23399,6.44552 -0.4435,6.9409 -0.39629,0.2898 -7.37301,0.3525 -39.216701,0.3525 h -38.7346 l 0.1823,2.31511 c 0.57351,7.2849 2.9306,14.1416 6.49941,18.90709 6.11608,8.16679 15.2247,12.2033 27.49698,12.18542 10.50602,-0.0151 18.160921,-2.79152 24.307511,-8.81552 2.76301,-2.70788 2.9615,-2.72069 7.12329,-0.4616 1.66262,0.9026 3.20342,1.91651 3.424,2.25312 0.37301,0.56927 0.3483,0.68828 -0.35258,1.69968 -1.76411,2.54561 -6.19331,6.47052 -10.03602,8.89341 -4.77808,3.0126 -11.654281,5.09659 -19.042191,5.77139 -4.7471,0.43352 -6.81969,0.4291 -11.38939,-0.0241 z m 39.567491,-52.21949 c 0,-1.0799 -1.06569,-5.57581 -1.85701,-7.83432 -3.91348,-11.16959 -12.97918,-18.59288 -24.924591,-20.40937 -4.04699,-0.61542 -10.3024,-0.61222 -14.08049,0.0101 -10.6916,1.75281 -18.38521,7.34153 -22.987,16.69801 -0.6441,1.30969 -1.42362,3.15521 -1.7322,4.1011 -0.68612,2.10291 -1.60931,6.21929 -1.61711,7.20989 l -0.01,0.72761 h 33.6021 c 32.773311,0 33.602011,-0.0119 33.602011,-0.50009 z m -350.3083,49.64469 -0.6615,-0.34459 -0.079,-26.05371 c -0.053,-17.59489 0.015,-26.9985 0.2122,-28.96409 1.5585,-15.5683 9.7134,-26.4808 22.9105,-30.6577 4.5332,-1.4347 6.084,-1.62221 13.3366,-1.61171 6.5181,0.0101 6.8501,0.035 9.7896,0.76542 8.895,2.20948 14.8235,6.16857 19.3134,12.89788 0.9052,1.3566 1.7222,2.49182 1.8157,2.52269 0.093,0.031 0.8232,-0.96329 1.6218,-2.20929 4.0009,-6.24269 10.3421,-10.67189 18.2824,-12.76969 4.4936,-1.18722 7.0143,-1.43301 13.0628,-1.2736 4.40489,0.1161 5.77329,0.2517 8.08099,0.80071 7.04651,1.6764 11.75771,4.23227 16.40731,8.90108 4.69181,4.7112 7.442599,10.19001 9.180809,18.28581 l 0.70638,3.29009 0.093,27.91359 0.093,27.91352 -0.5697,0.46299 c -0.48519,0.39439 -1.1493,0.463 -4.479789,0.463 -3.4553,0 -3.98269,-0.059 -4.53469,-0.50559 l -0.62461,-0.5057 -0.14271,-27.47402 c -0.12809,-24.65998 -0.18939,-27.69079 -0.59849,-29.59068 -2.53791,-11.7861 -8.45399,-18.09649 -18.8877,-20.1463 -3.09769,-0.6086 -9.3801,-0.6168 -12.6789,-0.0169 -6.6788,1.2152 -12.0235,4.5567 -15.3225,9.57961 -2.2635,3.4463 -3.7996,8.54739 -4.342,14.41979 -0.1751,1.8946 -0.2815,12.5459 -0.282,28.22921 l -7.9e-4,25.18659 -0.5881,0.4119 c -0.4673,0.32729 -1.3846,0.41191 -4.4686,0.41191 -3.3088,0 -3.962,-0.068 -4.4333,-0.4631 -0.5525,-0.46281 -0.5527,-0.47109 -0.6399,-26.39222 -0.078,-23.23978 -0.1354,-26.21729 -0.552,-28.70718 -1.2289,-7.34542 -3.4667,-12.13782 -7.6391,-16.35879 -4.8067,-4.86291 -11.7926,-7.27422 -19.7022,-6.80072 -7.074,0.4236 -12.147,2.31801 -16.0936,6.0098 -4.7151,4.41071 -7.1338,10.24141 -8.0387,19.3784 -0.1826,1.84441 -0.2862,11.86161 -0.2862,27.68272 0,22.71749 -0.036,24.82289 -0.4366,25.15558 -0.6188,0.51461 -7.8912,0.64899 -8.8238,0.16301 z m 385.56019,0.058 c -0.32948,-0.1324 -0.71649,-0.5493 -0.8599,-0.92649 -0.16539,-0.435 -0.26069,-11.10419 -0.26069,-29.17899 0,-23.80023 0.066,-29.05951 0.4019,-31.93122 0.74189,-6.34719 2.31849,-10.50229 5.5208,-14.55049 1.4065,-1.778 2.07949,-2.42541 4.32461,-4.1601 3.4535,-2.66829 6.66578,-4.1887 11.15029,-5.27762 5.42369,-1.31677 17.74362,-0.76578 19.37609,0.86673 0.64921,0.64907 0.64191,1.9322 -0.032,5.63927 -0.2888,1.58901 -0.5251,2.93143 -0.5251,2.98313 0,0.052 -0.29281,0.20529 -0.65061,0.34139 -0.44201,0.16798 -1.31169,0.117 -2.712,-0.15902 -1.3067,-0.25759 -3.75669,-0.4209 -6.6916,-0.44598 -5.2758,-0.045 -7.57249,0.38629 -10.98019,2.06291 -5.4361,2.67459 -7.97451,6.74409 -8.58282,13.75968 -0.16909,1.95 -0.2763,14.1751 -0.27799,31.68391 0,28.1542 -0.0101,28.51538 -0.53189,29.03799 -0.48141,0.48141 -0.86932,0.52771 -4.29951,0.51242 -2.0737,-0.0101 -4.0399,-0.12512 -4.36949,-0.25752 z"
       id="path1071"
       inkscape:connector-curvature="0" />
    <g
       transform="matrix(10.948406,-0.83218464,0.83218464,10.948406,-834.20114,-665.88784)"
       style="opacity:0.98999999"
       id="g834">
      <path
         inkscape:connector-curvature="0"
         inkscape:export-ydpi="145.94"
         inkscape:export-xdpi="145.94"
         id="path4167"
         d="m 75.091998,52.13167 a 3.4132859,2.8317633 0 0 0 -2.157282,0.639497 c -3.49227,0.597681 -7.519272,2.476301 -12.387306,6.370085 -3.013762,-0.346965 -6.031658,-0.667149 -9.511157,1.96661 0.0044,0.34343 -0.06078,0.7217 0.214455,0.929725 -1.119979,0.534532 -2.214737,1.144416 -3.146464,2.243703 -0.742039,0.578806 1.798115,2.595792 2.216878,2.342012 2.080836,-1.315755 4.50096,-1.439176 7.115496,-1.153169 0.444029,1.311045 1.090368,2.422675 2.141106,3.46407 -0.14371,2.715082 -1.736407,4.520391 -4.572578,5.975602 -0.169344,0.08896 0.760537,2.349637 1.037023,2.395799 2.756365,0.314199 10.288085,-4.374998 11.53888,-8.306414 l 0.02598,-0.07204 c 8.156,-1.482006 13.18866,-5.582953 15.627792,-13.285506 0.110953,-0.402065 0.892018,-0.944 2.163368,-1.720766 -0.957989,0.285418 -2.11683,0.80915 -2.574582,0.500536 -2.342093,-1.238246 -4.204073,-1.746811 -5.734318,-1.751047 A 3.4132859,2.8317633 0 0 0 75.091979,52.13167 Z M 55.878319,65.818849 c -1.311338,0.05491 -2.418868,1.472476 -3.215185,3.316398 -3.095513,1.952101 -6.360573,3.734557 -9.153592,5.989154 3.598593,-1.719006 7.090269,-3.510103 10.691151,-4.362271 2.278157,2.393232 3.261754,-0.0846 4.201324,-1.609046 l -0.313596,-0.692316 c 0.0014,-0.0022 0.0028,-0.0047 0.0042,-0.0069 l -0.794915,-1.751461 c -0.0025,-0.0014 -0.0049,-0.0024 -0.0073,-0.0037 l -0.265,-0.584945 C 56.628629,65.894938 56.245495,65.803458 55.87832,65.818833 Z"
         style="fill:#ffffff;fill-opacity:1;fill-rule:evenodd;stroke:#ffffff;stroke-width:1.76985204;stroke-linecap:round;stroke-linejoin:round;stroke-miterlimit:4;stroke-dasharray:none;stroke-opacity:1" />
      <path
         inkscape:export-ydpi="145.94"
         inkscape:export-xdpi="145.94"
         sodipodi:nodetypes="cccccccccccccccc"
         inkscape:connector-curvature="0"
         id="path4147"
         d="m 55.005195,74.909862 c -0.169343,0.08896 0.76045,2.349519 1.036936,2.395682 2.773053,0.316099 10.380523,-4.432075 11.561961,-8.377846 8.15772,-1.481557 13.191368,-5.582599 15.630792,-13.286071 0.110948,-0.402065 0.891911,-0.944011 2.163261,-1.720777 -0.957989,0.285419 -2.116709,0.809204 -2.574461,0.50059 -2.389755,-1.263443 -4.280666,-1.768648 -5.828297,-1.752065 -0.844859,-0.443777 -2.209135,-0.566895 -3.075049,-0.03576 -3.716697,0.394066 -8.040375,2.242356 -13.372899,6.507668 -3.013761,-0.346966 -6.031706,-0.667157 -9.511205,1.966602 0.0044,0.34343 -0.0607,0.721641 0.214538,0.929667 -1.119979,0.534532 -2.214837,1.144428 -3.146564,2.243715 -0.742039,0.578807 1.798134,2.595826 2.216897,2.342045 2.080836,-1.315755 4.50099,-1.439151 7.115526,-1.153144 0.444029,1.311045 1.090308,2.422637 2.141047,3.464033 -0.143711,2.71508 -1.736311,4.520446 -4.572483,5.975657 z"
         style="fill:#ffccaa;fill-opacity:1;fill-rule:evenodd;stroke:none;stroke-width:0.07079408px;stroke-linecap:butt;stroke-linejoin:miter;stroke-opacity:1" />
      <path
         inkscape:export-ydpi="145.94"
         inkscape:export-xdpi="145.94"
         sodipodi:nodetypes="ccccc"
         inkscape:connector-curvature="0"
         id="path4149"
         d="m 48.708601,64.217195 c 4.810472,-3.721155 12.995412,-4.640319 15.09431,-2.932898 0.315928,0.328047 -2.769958,3.266183 -5.25899,4.146511 1.52572,-0.13568 6.557203,-3.100709 5.739378,-4.829168 -1.208414,-2.440868 -10.992521,-1.291434 -15.574698,3.615555 z"
         style="fill:#f4994b;fill-opacity:1;fill-rule:evenodd;stroke:none;stroke-width:0.07079408px;stroke-linecap:butt;stroke-linejoin:miter;stroke-opacity:1" />
      <path
         inkscape:export-ydpi="145.94"
         inkscape:export-xdpi="145.94"
         sodipodi:nodetypes="cccc"
         inkscape:connector-curvature="0"
         id="path4151"
         d="m 64.605792,59.623997 c 3.13314,-2.924298 4.922586,-3.531168 6.95462,-4.290769 0.18794,0.387611 0.400464,0.8619 0.602472,1.375352 -2.413674,0.786415 -5.286446,1.842952 -7.557092,2.915417 z"
         style="fill:#f4994b;fill-opacity:1;fill-rule:evenodd;stroke:none;stroke-width:0.07079408px;stroke-linecap:butt;stroke-linejoin:miter;stroke-opacity:1" />
      <path
         inkscape:export-ydpi="145.94"
         inkscape:export-xdpi="145.94"
         sodipodi:nodetypes="ccccc"
         inkscape:connector-curvature="0"
         id="path4155"
         d="m 78.164692,53.826222 c 0.646937,0.943889 0.34858,1.311446 -0.177556,2.582601 0.388565,-0.343211 0.922585,-0.613263 1.358786,-1.228196 1.297528,-0.240575 2.399108,-0.217548 3.620786,-0.204963 -1.434664,-1.334574 -3.172907,-1.143561 -4.802016,-1.149442 z"
         style="fill:#f4994b;fill-opacity:1;fill-rule:evenodd;stroke:none;stroke-width:0.07079408px;stroke-linecap:butt;stroke-linejoin:miter;stroke-opacity:1" />
      <path
         inkscape:export-ydpi="145.94"
         inkscape:export-xdpi="145.94"
         sodipodi:nodetypes="cccc"
         inkscape:connector-curvature="0"
         id="path4157"
         d="m 67.60933,68.920665 c -2.381489,0.581426 -4.697523,0.821038 -6.865231,0.286051 1.380877,0.546704 3.007582,0.949391 6.713266,0.134086 z"
         style="fill:#f4994b;fill-opacity:1;fill-rule:evenodd;stroke:none;stroke-width:0.07079408px;stroke-linecap:butt;stroke-linejoin:miter;stroke-opacity:1" />
      <path
         inkscape:export-ydpi="145.94"
         inkscape:export-xdpi="145.94"
         sodipodi:nodetypes="cccccc"
         inkscape:connector-curvature="0"
         id="path4159"
         d="m 57.025433,66.113786 1.376621,3.039295 c -0.93957,1.524446 -1.923221,4.002273 -4.201378,1.609038 -3.600882,0.852168 -7.092574,2.643276 -10.691167,4.362282 2.793019,-2.254594 6.058129,-4.037098 9.153641,-5.989198 1.019287,-2.360221 2.548451,-4.021756 4.362283,-3.021417 z"
         style="fill:#e10000;fill-opacity:1;fill-rule:evenodd;stroke:none;stroke-width:0.07079408px;stroke-linecap:butt;stroke-linejoin:miter;stroke-opacity:1" />
      <path
         inkscape:export-ydpi="145.94"
         inkscape:export-xdpi="145.94"
         style="fill:#ffac1c;fill-opacity:1;fill-rule:evenodd;stroke:none;stroke-width:0.07079408px;stroke-linecap:butt;stroke-linejoin:miter;stroke-opacity:1"
         d="m 57.297709,66.702368 0.794829,1.751513 c -0.542486,0.878522 -1.110423,2.306469 -2.425778,0.927272 -2.079064,0.491096 -4.095086,1.523292 -6.17283,2.513939 1.612625,-1.299301 3.497822,-2.326539 5.285099,-3.451514 0.588512,-1.36017 1.471416,-2.317695 2.51868,-1.74121 z"
         id="path4161"
         inkscape:connector-curvature="0"
         sodipodi:nodetypes="cccccc" />
      <ellipse
         inkscape:export-ydpi="145.94"
         inkscape:export-xdpi="145.94"
         ry="2.6039276"
         rx="3.4201019"
         cy="54.823238"
         cx="74.808556"
         id="path4165"
         style="opacity:1;fill:#f4994b;fill-opacity:1;stroke:#ffe6d5;stroke-width:0.5;stroke-linecap:round;stroke-linejoin:round;stroke-miterlimit:4;stroke-dasharray:none;stroke-dashoffset:0;stroke-opacity:1" />
    </g>
  </g>
</svg>
