<?xml version="1.0" encoding="UTF-8" standalone="no"?>
<!-- Created with Inkscape (http://www.inkscape.org/) -->

<svg
   xmlns:dc="http://purl.org/dc/elements/1.1/"
   xmlns:cc="http://creativecommons.org/ns#"
   xmlns:rdf="http://www.w3.org/1999/02/22-rdf-syntax-ns#"
   xmlns:svg="http://www.w3.org/2000/svg"
   xmlns="http://www.w3.org/2000/svg"
   xmlns:sodipodi="http://sodipodi.sourceforge.net/DTD/sodipodi-0.dtd"
   xmlns:inkscape="http://www.inkscape.org/namespaces/inkscape"
   width="48.448872mm"
   height="30.447701mm"
   viewBox="0 0 48.448873 30.4477"
   version="1.1"
   id="svg823"
   inkscape:version="0.92.2 5c3e80d, 2017-08-06"
   sodipodi:docname="rocket.svg"
   inkscape:export-filename="/home/main/Projects/ambrockets/src/assets/images/rocket.png"
   inkscape:export-xdpi="145.94"
   inkscape:export-ydpi="145.94">
  <defs
     id="defs817" />
  <sodipodi:namedview
     id="base"
     pagecolor="#ffffff"
     bordercolor="#666666"
     borderopacity="1.0"
     inkscape:pageopacity="0.0"
     inkscape:pageshadow="2"
     inkscape:zoom="2.8"
     inkscape:cx="81.50939"
     inkscape:cy="54.905071"
     inkscape:document-units="mm"
     inkscape:current-layer="layer1"
     showgrid="false"
     fit-margin-top="0"
     fit-margin-left="0"
     fit-margin-right="0"
     fit-margin-bottom="0"
     inkscape:window-width="1360"
     inkscape:window-height="739"
     inkscape:window-x="1366"
     inkscape:window-y="0"
     inkscape:window-maximized="1" />
  <metadata
     id="metadata820">
    <rdf:RDF>
      <cc:Work
         rdf:about="">
        <dc:format>image/svg+xml</dc:format>
        <dc:type
           rdf:resource="http://purl.org/dc/dcmitype/StillImage" />
        <dc:title />
      </cc:Work>
    </rdf:RDF>
  </metadata>
  <g
     inkscape:label="Layer 1"
     inkscape:groupmode="layer"
     id="layer1"
     transform="translate(-40.87175,-49.578159)">
    <rect
       style="opacity:1;fill:#ee9700;fill-opacity:1;stroke:none;stroke-width:0.32657251;stroke-miterlimit:4;stroke-dasharray:none;stroke-opacity:1"
       id="rect821"
       width="48.448872"
       height="30.447701"
       x="40.87175"
       y="49.578159" />
    <path
       style="fill:#ffffff;fill-opacity:1;fill-rule:evenodd;stroke:#ffffff;stroke-width:1.76985204;stroke-linecap:round;stroke-linejoin:round;stroke-miterlimit:4;stroke-dasharray:none;stroke-opacity:1"
       d="m 75.091998,52.13167 a 3.4132859,2.8317633 0 0 0 -2.157282,0.639497 c -3.49227,0.597681 -7.519272,2.476301 -12.387306,6.370085 -3.013762,-0.346965 -6.031658,-0.667149 -9.511157,1.96661 0.0044,0.34343 -0.06078,0.7217 0.214455,0.929725 -1.119979,0.534532 -2.214737,1.144416 -3.146464,2.243703 -0.742039,0.578806 1.798115,2.595792 2.216878,2.342012 2.080836,-1.315755 4.50096,-1.439176 7.115496,-1.153169 0.444029,1.311045 1.090368,2.422675 2.141106,3.46407 -0.14371,2.715082 -1.736407,4.520391 -4.572578,5.975602 -0.169344,0.08896 0.760537,2.349637 1.037023,2.395799 2.756365,0.314199 10.288085,-4.374998 11.53888,-8.306414 l 0.02598,-0.07204 c 8.156,-1.482006 13.18866,-5.582953 15.627792,-13.285506 0.110953,-0.402065 0.892018,-0.944 2.163368,-1.720766 -0.957989,0.285418 -2.11683,0.80915 -2.574582,0.500536 -2.342093,-1.238246 -4.204073,-1.746811 -5.734318,-1.751047 A 3.4132859,2.8317633 0 0 0 75.091979,52.13167 Z M 55.878319,65.818849 c -1.311338,0.05491 -2.418868,1.472476 -3.215185,3.316398 -3.095513,1.952101 -6.360573,3.734557 -9.153592,5.989154 3.598593,-1.719006 7.090269,-3.510103 10.691151,-4.362271 2.278157,2.393232 3.261754,-0.0846 4.201324,-1.609046 l -0.313596,-0.692316 c 0.0014,-0.0022 0.0028,-0.0047 0.0042,-0.0069 l -0.794915,-1.751461 c -0.0025,-0.0014 -0.0049,-0.0024 -0.0073,-0.0037 l -0.265,-0.584945 C 56.628629,65.894938 56.245495,65.803458 55.87832,65.818833 Z"
       id="path4167"
       inkscape:export-xdpi="145.94"
       inkscape:export-ydpi="145.94"
       inkscape:connector-curvature="0" />
    <path
       style="fill:#ffccaa;fill-opacity:1;fill-rule:evenodd;stroke:none;stroke-width:0.07079408px;stroke-linecap:butt;stroke-linejoin:miter;stroke-opacity:1"
       d="m 55.005195,74.909862 c -0.169343,0.08896 0.76045,2.349519 1.036936,2.395682 2.773053,0.316099 10.380523,-4.432075 11.561961,-8.377846 8.15772,-1.481557 13.191368,-5.582599 15.630792,-13.286071 0.110948,-0.402065 0.891911,-0.944011 2.163261,-1.720777 -0.957989,0.285419 -2.116709,0.809204 -2.574461,0.50059 -2.389755,-1.263443 -4.280666,-1.768648 -5.828297,-1.752065 -0.844859,-0.443777 -2.209135,-0.566895 -3.075049,-0.03576 -3.716697,0.394066 -8.040375,2.242356 -13.372899,6.507668 -3.013761,-0.346966 -6.031706,-0.667157 -9.511205,1.966602 0.0044,0.34343 -0.0607,0.721641 0.214538,0.929667 -1.119979,0.534532 -2.214837,1.144428 -3.146564,2.243715 -0.742039,0.578807 1.798134,2.595826 2.216897,2.342045 2.080836,-1.315755 4.50099,-1.439151 7.115526,-1.153144 0.444029,1.311045 1.090308,2.422637 2.141047,3.464033 -0.143711,2.71508 -1.736311,4.520446 -4.572483,5.975657 z"
       id="path4147"
       inkscape:connector-curvature="0"
       sodipodi:nodetypes="cccccccccccccccc"
       inkscape:export-xdpi="145.94"
       inkscape:export-ydpi="145.94" />
    <path
       style="fill:#ee9700;fill-opacity:1;fill-rule:evenodd;stroke:none;stroke-width:0.07079408px;stroke-linecap:butt;stroke-linejoin:miter;stroke-opacity:1"
       d="m 48.708601,64.217195 c 4.810472,-3.721155 12.995412,-4.640319 15.09431,-2.932898 0.315928,0.328047 -2.769958,3.266183 -5.25899,4.146511 1.52572,-0.13568 6.557203,-3.100709 5.739378,-4.829168 -1.208414,-2.440868 -10.992521,-1.291434 -15.574698,3.615555 z"
       id="path4149"
       inkscape:connector-curvature="0"
       sodipodi:nodetypes="ccccc"
       inkscape:export-xdpi="145.94"
       inkscape:export-ydpi="145.94" />
    <path
       style="fill:#ee9700;fill-opacity:1;fill-rule:evenodd;stroke:none;stroke-width:0.07079408px;stroke-linecap:butt;stroke-linejoin:miter;stroke-opacity:1"
       d="m 64.605792,59.623997 c 3.13314,-2.924298 4.922586,-3.531168 6.95462,-4.290769 0.18794,0.387611 0.400464,0.8619 0.602472,1.375352 -2.413674,0.786415 -5.286446,1.842952 -7.557092,2.915417 z"
       id="path4151"
       inkscape:connector-curvature="0"
       sodipodi:nodetypes="cccc"
       inkscape:export-xdpi="145.94"
       inkscape:export-ydpi="145.94" />
    <path
       style="fill:#ee9700;fill-opacity:1;fill-rule:evenodd;stroke:none;stroke-width:0.07079408px;stroke-linecap:butt;stroke-linejoin:miter;stroke-opacity:1"
       d="m 78.164692,53.826222 c 0.646937,0.943889 0.34858,1.311446 -0.177556,2.582601 0.388565,-0.343211 0.922585,-0.613263 1.358786,-1.228196 1.297528,-0.240575 2.399108,-0.217548 3.620786,-0.204963 -1.434664,-1.334574 -3.172907,-1.143561 -4.802016,-1.149442 z"
       id="path4155"
       inkscape:connector-curvature="0"
       sodipodi:nodetypes="ccccc"
       inkscape:export-xdpi="145.94"
       inkscape:export-ydpi="145.94" />
    <path
       style="fill:#ee9700;fill-opacity:1;fill-rule:evenodd;stroke:none;stroke-width:0.07079408px;stroke-linecap:butt;stroke-linejoin:miter;stroke-opacity:1"
       d="m 67.60933,68.920665 c -2.381489,0.581426 -4.697523,0.821038 -6.865231,0.286051 1.380877,0.546704 3.007582,0.949391 6.713266,0.134086 z"
       id="path4157"
       inkscape:connector-curvature="0"
       sodipodi:nodetypes="cccc"
       inkscape:export-xdpi="145.94"
       inkscape:export-ydpi="145.94" />
    <path
       style="fill:#e10000;fill-opacity:1;fill-rule:evenodd;stroke:none;stroke-width:0.07079408px;stroke-linecap:butt;stroke-linejoin:miter;stroke-opacity:1"
       d="m 57.025433,66.113786 1.376621,3.039295 c -0.93957,1.524446 -1.923221,4.002273 -4.201378,1.609038 -3.600882,0.852168 -7.092574,2.643276 -10.691167,4.362282 2.793019,-2.254594 6.058129,-4.037098 9.153641,-5.989198 1.019287,-2.360221 2.548451,-4.021756 4.362283,-3.021417 z"
       id="path4159"
       inkscape:connector-curvature="0"
       sodipodi:nodetypes="cccccc"
       inkscape:export-xdpi="145.94"
       inkscape:export-ydpi="145.94" />
    <path
       sodipodi:nodetypes="cccccc"
       inkscape:connector-curvature="0"
       id="path4161"
       d="m 57.297709,66.702368 0.794829,1.751513 c -0.542486,0.878522 -1.110423,2.306469 -2.425778,0.927272 -2.079064,0.491096 -4.095086,1.523292 -6.17283,2.513939 1.612625,-1.299301 3.497822,-2.326539 5.285099,-3.451514 0.588512,-1.36017 1.471416,-2.317695 2.51868,-1.74121 z"
       style="fill:#ffac1c;fill-opacity:1;fill-rule:evenodd;stroke:none;stroke-width:0.07079408px;stroke-linecap:butt;stroke-linejoin:miter;stroke-opacity:1"
       inkscape:export-xdpi="145.94"
       inkscape:export-ydpi="145.94" />
    <ellipse
       style="opacity:1;fill:#ee9700;fill-opacity:1;stroke:#ffe6d5;stroke-width:0.32618004;stroke-linecap:round;stroke-linejoin:round;stroke-miterlimit:4;stroke-dasharray:none;stroke-dashoffset:0;stroke-opacity:1"
       id="path4165"
       cx="75.092041"
       cy="54.728745"
       rx="3.4201019"
       ry="2.6039276"
       inkscape:export-xdpi="145.94"
       inkscape:export-ydpi="145.94" />
  </g>
</svg>
